PathFileType	4	(X/Y/Z)	/Users/niels/Desktop/University/Third Semester/Perception and Action/Exam/Gymnastics Motion Tracking/Code for Gym Tracking/Scripts/Analyzed Data/Start Salto/st_salto_bad_id9_2_Sports2D/st_salto_bad_id9_2_Sports2D_px_person00.trc
DataRate	CameraRate	NumFrames	NumMarkers	Units	OrigDataRate	OrigDataStartFrame	OrigNumFrames
29.871244635193133	29.871244635193133	10	22	m	29.871244635193133	87	233
Frame#	Time	Hip			RHip			RKnee			RAnkle			RBigToe			RSmallToe			RHeel			LHip			LKnee			LAnkle			LBigToe			LSmallToe			LHeel			Neck			Head			Nose			RShoulder			RElbow			RWrist			LShoulder			LElbow			LWrist		
		X1	Y1	Z1	X2	Y2	Z2	X3	Y3	Z3	X4	Y4	Z4	X5	Y5	Z5	X6	Y6	Z6	X7	Y7	Z7	X8	Y8	Z8	X9	Y9	Z9	X10	Y10	Z10	X11	Y11	Z11	X12	Y12	Z12	X13	Y13	Z13	X14	Y14	Z14	X15	Y15	Z15	X16	Y16	Z16	X17	Y17	Z17	X18	Y18	Z18	X19	Y19	Z19	X20	Y20	Z20	X21	Y21	Z21	X22	Y22	Z22
87	2.9125	0.19436226607339988	-0.46411222552752796	0.0	0.1686963740075435	-0.46609003043003	0.0	0.31541219008375204	-0.4824079855724866	0.0	0.3402094154863666	-0.6414233267377857	0.0	0.41072236632556863	-0.6469890170777046	0.0	0.3908274801708279	-0.6604121771747303	0.0	0.33654901812498805	-0.6642034014151086	0.0	0.22567528717677657	-0.46628526298055123	0.0	0.3425785128632305	-0.5466047088059949	0.0	0.2694428310536627	-0.6795324118925071	0.0	0.3151947684696223	-0.7359785003101963	0.0	0.3149595354741533	-0.7260816626099716	0.0	0.24787939910305384	-0.695489144205016	0.0	0.27968562021723126	-0.32969754558419445	0.0	0.3405118980687168	-0.25354837908259004	0.0	0.3389414716844993	-0.3118098044309767	0.0	0.22360628874369262	-0.337733070863396	0.0	0.17471780876297713	-0.4324564793980495	0.0	0.13076311434007287	-0.5267553478033961	0.0	0.3048658773575767	-0.359763845188773	0.0	0.27811463980366863	-0.44582867871466764	0.0	0.30798892427492397	-0.5398470454072994	0.0
88	2.945977011494253	0.20343689659601957	-0.4639597819980989	0.0	0.1782840599181824	-0.4653796442829865	0.0	0.32718572568427934	-0.48221270733933225	0.0	0.35208466904469465	-0.6416800321931687	0.0	0.4236007796815674	-0.6477771959877423	0.0	0.4046217505904536	-0.6606304718823909	0.0	0.34744778174446966	-0.6640776737159223	0.0	0.2371849249953193	-0.4654132243105962	0.0	0.3573898652262207	-0.5407682955173909	0.0	0.2903427331843735	-0.6769466071545852	0.0	0.3383187501956924	-0.7319685834062861	0.0	0.3384075741416825	-0.7221132234236981	0.0	0.2698682165642973	-0.6948652891349922	0.0	0.29334395170391697	-0.3324036866844821	0.0	0.35678350063943526	-0.2555563374915988	0.0	0.3521548516494694	-0.3140188752183355	0.0	0.23738603525549018	-0.340673490602369	0.0	0.19442872456750795	-0.43783513208485547	0.0	0.1566056150834252	-0.5328953765630279	0.0	0.3162198582330612	-0.36181661716678276	0.0	0.2918485955299673	-0.44699567110771427	0.0	0.31722492964303106	-0.5427319584776864	0.0
89	2.979454022988506	0.2118820025407479	-0.46488367190517044	0.0	0.1877028545058555	-0.4656994247596137	0.0	0.3383274179623966	-0.48261272106894487	0.0	0.36328353031014426	-0.6422580524791823	0.0	0.434728381776321	-0.6495936018423225	0.0	0.41678318407591164	-0.6615192365596229	0.0	0.35739089331077134	-0.664391756064139	0.0	0.2476863194375875	-0.46575423487655343	0.0	0.37094212005057614	-0.5361389296273763	0.0	0.3103465598026868	-0.6744715197720693	0.0	0.36040770680377676	-0.7272817945904323	0.0	0.3606510557919401	-0.7179398961216595	0.0	0.2907784126458832	-0.6940491669438708	0.0	0.306240117830573	-0.33477587030230904	0.0	0.3715004883365632	-0.2577711821073713	0.0	0.3646808769433606	-0.31610910772160583	0.0	0.2505487033500155	-0.34355148880882896	0.0	0.21315517822380997	-0.44255319733345605	0.0	0.18200598142955401	-0.538857463101056	0.0	0.3271369683753897	-0.3637348812959377	0.0	0.30539738290905516	-0.4482319981563382	0.0	0.3270758345017007	-0.5452881260504159	0.0
90	3.012931034482759	0.2201711536875927	-0.4665829184775194	0.0	0.19750859444365332	-0.46694641098225087	0.0	0.34901043212230026	-0.4836219897650075	0.0	0.3739990859550463	-0.6431636178064093	0.0	0.444300992939045	-0.6522668399382507	0.0	0.42750326837155267	-0.6630829819385143	0.0	0.3668406623196639	-0.6651552474737095	0.0	0.2573283960455969	-0.46711192281989017	0.0	0.3833440207873513	-0.5325511557404431	0.0	0.32987043479961614	-0.6720246350532167	0.0	0.3819044267530072	-0.7214386090875954	0.0	0.38190180202983426	-0.7131612576366919	0.0	0.3110638832673799	-0.6928665608911639	0.0	0.318650277001397	-0.33678950504452093	0.0	0.38456153220722566	-0.2602640451764306	0.0	0.37674536260772823	-0.31815153372247784	0.0	0.263456377726724	-0.3463575204253563	0.0	0.23135370328665972	-0.4467594891974605	0.0	0.2072807238009443	-0.5446345334651629	0.0	0.33806945542140804	-0.3656656075759584	0.0	0.3187791582663246	-0.4496283535434256	0.0	0.33811269538597793	-0.5471237092442296	0.0
91	3.0464080459770115	0.2287506317739678	-0.46868776850561217	0.0	0.20815988627940984	-0.4688275419962551	0.0	0.3596915832808319	-0.4852742120342881	0.0	0.38469236516865046	-0.6445370043724348	0.0	0.4532132815251862	-0.6556327500158238	0.0	0.43760981188462356	-0.6653759336576296	0.0	0.3764180382224837	-0.6666348365816573	0.0	0.2664024559058413	-0.4691631746396284	0.0	0.39509037809325065	-0.5297200488341895	0.0	0.3496491583419567	-0.6694483204009093	0.0	0.4036117929597509	-0.7141060243094457	0.0	0.4028369925960658	-0.7073906419728928	0.0	0.3314986559496074	-0.6912206073020112	0.0	0.33105682472814313	-0.33857517529193154	0.0	0.3965057980927615	-0.2632086679219394	0.0	0.3887702379759434	-0.3203439933001181	0.0	0.27675938875878797	-0.34907994558698957	0.0	0.24981152601933024	-0.45069253897034556	0.0	0.23324220792434622	-0.5502149217595628	0.0	0.34949516282636095	-0.36769847901884356	0.0	0.3322513897803867	-0.451347341183744	0.0	0.3506219447494503	-0.5483100942596988	0.0
92	3.0798850574712646	0.2379049524705216	-0.47092189595116796	0.0	0.21978599172970162	-0.4709776153512346	0.0	0.370853782507107	-0.4876790717624907	0.0	0.39588188815824193	-0.6465638585795267	0.0	0.4626471679155226	-0.6595511465991086	0.0	0.44821477417299654	-0.6684227153778594	0.0	0.3867030661763368	-0.6691940288344898	0.0	0.2751744068719724	-0.47162430103922215	0.0	0.4067814692853295	-0.5274370748967244	0.0	0.37028409302683646	-0.6666205147092612	0.0	0.42614149960595965	-0.7053403999343437	0.0	0.42416882153809754	-0.7005154853505927	0.0	0.3527307136676506	-0.6891895789862407	0.0	0.34392107854701354	-0.3403530628791903	0.0	0.4082268870842132	-0.26671499429955314	0.0	0.4011879952781123	-0.3228472855998536	0.0	0.29093627261951727	-0.35168677741490584	0.0	0.2692306508947924	-0.45451547579896495	0.0	0.2607138393270667	-0.5553733310557256	0.0	0.36172006553617847	-0.36994385008168623	0.0	0.34624293200443285	-0.45368579782697127	0.0	0.3647486861136823	-0.549275230566196	0.0
93	3.1133620689655173	0.2477198373078567	-0.47314401435619197	0.0	0.23211464093850998	-0.4730950079638385	0.0	0.38269328490283655	-0.4909947453633723	0.0	0.4079204259651074	-0.6493316830799974	0.0	0.4735128777170691	-0.6638234633108441	0.0	0.4601459360339044	-0.6720639305312291	0.0	0.3980888500351669	-0.6729584647717307	0.0	0.28388086790753314	-0.47428635253253687	0.0	0.41875338583062316	-0.52567047426325	0.0	0.39174866508710704	-0.6636732401126753	0.0	0.4493910166852709	-0.6958419542307589	0.0	0.4460897191690371	-0.6929968583618319	0.0	0.3748493410118458	-0.6871189307439296	0.0	0.35743495311615525	-0.3423128361108332	0.0	0.42039526690753626	-0.27066474873401314	0.0	0.41421112690665357	-0.3256663267220891	0.0	0.3059920283949364	-0.3541328518999883	0.0	0.28983247172811305	-0.4582442784411511	0.0	0.2899862485786695	-0.5596435468142438	0.0	0.3747772914249224	-0.3725169583416278	0.0	0.3611456385483963	-0.4569277731398443	0.0	0.3805247719224951	-0.5505720856748005	0.0
94	3.1468390804597703	0.25824247098785336	-0.4753200741000134	0.0	0.24473534165472718	-0.4750705964959482	0.0	0.395041248557417	-0.4953273735338358	0.0	0.42089772665728165	-0.6527192641402789	0.0	0.4861004856222892	-0.6681366610711711	0.0	0.4735795556375198	-0.6758819792636197	0.0	0.41075357544538754	-0.6775594572303684	0.0	0.2929292967883822	-0.47695047367874166	0.0	0.4309458243855571	-0.5245056904757567	0.0	0.41334779785268194	-0.6611462417558429	0.0	0.4725563797403936	-0.6870191930105145	0.0	0.4681564534841732	-0.6859382584047388	0.0	0.39738860900059897	-0.6856201868866757	0.0	0.37145383560772294	-0.3445505307430787	0.0	0.4331417787708202	-0.2747370044301462	0.0	0.42777086688930416	-0.32867885477485576	0.0	0.32155271625840803	-0.35641389448178046	0.0	0.31132994121847357	-0.461822375820849	0.0	0.3206721177463844	-0.5625911504339516	0.0	0.3884722457067901	-0.37540014267481236	0.0	0.3771185096556126	-0.4611118774732949	0.0	0.39789494664188063	-0.5526850745234061	0.0
95	3.180316091954023	0.2694915642535185	-0.4774480110174156	0.0	0.2573052000037072	-0.47697183694758927	0.0	0.4074957641065054	-0.5006690777160518	0.0	0.4345852037790106	-0.6564537796561958	0.0	0.4999817565112837	-0.6721918080208655	0.0	0.48799564910027543	-0.6794212801930789	0.0	0.4245459595858099	-0.6823198021744261	0.0	0.30280213107158493	-0.47938990708287915	0.0	0.44297742626688114	-0.5240020888355612	0.0	0.4340948555875629	-0.6597659000510129	0.0	0.4945294209337039	-0.6804781884409604	0.0	0.48956366980585087	-0.6805767692179697	0.0	0.4195780243820782	-0.6852956071745959	0.0	0.38557644661623053	-0.3470664136557455	0.0	0.44613135519724934	-0.2785793208367154	0.0	0.44156631866065443	-0.3317471143245025	0.0	0.3371051958265526	-0.35857507878583966	0.0	0.33311030374348216	-0.4651532912273743	0.0	0.35189946564241775	-0.5639700666153272	0.0	0.4024359133021009	-0.37839828865504366	0.0	0.39401372008515084	-0.4659473294297836	0.0	0.4167966489064591	-0.5556774669638003	0.0
96	3.213793103448276	0.28133007964122303	-0.4795133980446208	0.0	0.269586385916049	-0.4789220630710072	0.0	0.4196691466680304	-0.5068923943419206	0.0	0.4485234778140921	-0.6603534777355216	0.0	0.5142596873304778	-0.6759337684090794	0.0	0.5024929220248128	-0.6825865217936322	0.0	0.4389153545577393	-0.6867677270528927	0.0	0.313708784335048	-0.4814260071111792	0.0	0.4543840214602218	-0.5240836248839658	0.0	0.45333678177067654	-0.6599591273387344	0.0	0.514540740321533	-0.677103469316497	0.0	0.5096510175474505	-0.677501735522796	0.0	0.4407248959873386	-0.6863350219570329	0.0	0.3993463066834096	-0.3497928248795405	0.0	0.4588844228686703	-0.2820013078303689	0.0	0.4552118196796069	-0.3348027248896262	0.0	0.35224818759014287	-0.3606654422639037	0.0	0.35454279786189014	-0.4680943354679496	0.0	0.3827667510935131	-0.5637280424339441	0.0	0.4162357037001667	-0.3812493263415759	0.0	0.4114651587427913	-0.47092044450385095	0.0	0.43712047110075175	-0.5588837318205097	0.0
